<svg xmlns="http://www.w3.org/2000/svg" viewBox="0 0 1200 640" role="img" aria-label="MCP-201 doodle">
  <rect width="1200" height="640" fill="#fcfbf8"/>

  <g font-family="Comic Sans MS, Chalkboard SE, Marker Felt, sans-serif" fill="#111">
    <text x="600" y="78" text-anchor="middle" font-size="60">MCP-201: AI-Planned Image Skills</text>
  </g>

  <g stroke="#111" stroke-width="4" fill="none" stroke-linecap="round" stroke-linejoin="round">
    <path d="M68 152 q4 -8 18 -8 h356 q18 0 18 18 v276 q0 18 -18 18 h-356 q-18 0 -18 -18 z"/>
    <path d="M68 188 h392"/>
    <circle cx="98" cy="166" r="7"/>
    <circle cx="124" cy="166" r="7"/>
    <circle cx="150" cy="166" r="7"/>
    <rect x="180" y="155" width="220" height="18" rx="9"/>

    <path d="M110 214 h210 v96 h-210 z"/>
    <path d="M114 332 h98 v102 h-98 z"/>
    <path d="M230 332 h98 v102 h-98 z"/>
    <path d="M346 332 h76 v102 h-76 z"/>

    <path d="M528 242 q0 -12 14 -12 h132 q14 0 14 14 v132 q0 14 -14 14 h-132 q-14 0 -14 -14 z"/>
    <rect x="534" y="214" width="98" height="28" rx="6"/>
    <rect x="550" y="362" width="110" height="28" rx="6"/>

    <path d="M734 152 q0 -16 18 -16 h360 q18 0 18 18 v284 q0 18 -18 18 h-360 q-18 0 -18 -18 z"/>
    <path d="M770 234 h122 v148 h-122 z"/>
    <path d="M930 234 h150 v148 h-150 z"/>

    <path d="M390 312 h102"/>
    <path d="M480 294 l34 18 -34 18"/>
    <path d="M688 312 h56"/>
    <path d="M732 294 l34 18 -34 18"/>
    <path d="M892 312 h28"/>
    <path d="M908 294 l34 18 -34 18"/>

    <rect x="798" y="476" width="106" height="50" rx="8"/>
    <rect x="982" y="476" width="96" height="50" rx="8"/>
  </g>

  <g font-family="Comic Sans MS, Chalkboard SE, Marker Felt, sans-serif" fill="#111">
    <text x="96" y="250" font-size="26">Plan and run the best</text>
    <text x="96" y="282" font-size="26">workflow for these images</text>

    <text x="546" y="233" font-size="17">plan_prompt</text>
    <text x="566" y="286" font-size="28">AI</text>
    <text x="548" y="319" font-size="28">Planner</text>
    <text x="548" y="350" font-size="28">+ MCP</text>
    <text x="564" y="381" font-size="17">run_workflow</text>

    <text x="816" y="510" font-size="31">before</text>
    <text x="1000" y="510" font-size="31">after</text>
  </g>

  <g stroke="#111" stroke-width="3" fill="none" stroke-linecap="round" stroke-linejoin="round">
    <circle cx="164" cy="380" r="27"/>
    <path d="M149 377 q15 -12 30 0"/>
    <path d="M152 395 q12 8 24 0"/>
    <path d="M164 407 v16"/>
    <path d="M151 438 l13 -8 13 8"/>

    <circle cx="280" cy="380" r="27"/>
    <path d="M265 377 q15 -12 30 0"/>
    <path d="M268 395 q12 8 24 0"/>
    <path d="M280 407 v16"/>
    <path d="M267 438 l13 -8 13 8"/>

    <circle cx="384" cy="380" r="22"/>
    <path d="M371 378 q13 -10 26 0"/>
    <path d="M374 394 q10 7 20 0"/>
    <path d="M384 404 v14"/>
    <path d="M373 432 l11 -7 11 7"/>

    <circle cx="831" cy="304" r="34"/>
    <path d="M812 300 q19 -14 38 0"/>
    <path d="M817 320 q14 10 28 0"/>
    <path d="M831 340 v21"/>
    <path d="M813 382 l18 -10 18 10"/>

    <circle cx="1006" cy="300" r="38" fill="#f5d0af"/>
    <path d="M986 296 q20 -14 40 0"/>
    <path d="M991 318 q15 10 30 0"/>
    <path d="M1006 340 v22"/>
    <path d="M986 385 l20 -11 20 11"/>
    <path d="M978 284 q15 -24 52 -14"/>
  </g>

  <g stroke="#111" stroke-width="3" fill="none" stroke-linecap="round">
    <path d="M954 214 l8 -18"/>
    <path d="M964 220 l16 -8"/>
    <path d="M1060 206 l7 -16"/>
    <path d="M1068 212 l16 -7"/>
    <path d="M1088 352 l7 -14"/>
    <path d="M1096 358 l14 -7"/>
  </g>
</svg>
